# AST/ASF file generated using VICON BodyLanguage
# -----------------------------------------------
:version 1.10
:name VICON
:units
  mass 1.0
  length 0.45
  angle deg
:documentation
   .ast/.asf automatically generated from VICON data using
   VICON BodyBuilder and BodyLanguage model FoxedUp or BRILLIANT.MOD
:root
   order TX TY TZ RX RY RZ
   axis XYZ
   position 0 0 0  
   orientation 0 0 0 
:bonedata
  begin
     id 1 
     name lhipjoint
     direction 0.643272 -0.706573 0.294883 
     length 2.58915 
     axis 0 0 0  XYZ
  end
  begin
     id 2 
     name lfemur
     direction 0.34202 -0.939693 0  
     length 7.06802  
     axis 0 0 20  XYZ
    dof rx ry rz
    limits (-160.0 20.0)
           (-70.0 70.0)
           (-60.0 70.0)
  end
  begin
     id 3 
     name ltibia
     direction 0.34202 -0.939693 0   
     length 7.94147   
     axis 0 0 20   XYZ
    dof rx
    limits (-10.0 170.0)
  end
  begin
     id 4 
     name lfoot
     direction 0.0435058 -0.119531 0.991877   
     length 1.8399   
     axis -90 7.62852e-016 20   XYZ
    dof rx rz
    limits (-45.0 90.0)
           (-70.0 20.0)
  end
  begin
     id 5 
     name ltoes
     direction 1.53505e-011 -4.22157e-011 1   
     length 0.934412   
     axis -90 7.62852e-016 20   XYZ
    dof rx
    limits (-90.0 20.0)
  end
  begin
     id 6 
     name rhipjoint
     direction -0.636801 -0.711547 0.296959   
     length 2.57105  
     axis 0 0 0  XYZ 
  end
  begin
     id 7 
     name rfemur
     direction -0.34202 -0.939693 0   
     length 7.03285   
     axis 0 0 -20   XYZ
    dof rx ry rz
    limits (-160.0 20.0)
           (-70.0 70.0)
           (-70.0 60.0)
  end
  begin
     id 8 
     name rtibia
     direction -0.34202 -0.939693 0   
     length 7.99111   
     axis 0 0 -20   XYZ
    dof rx
    limits (-10.0 170.0)
 end
 begin
     id 9 
     name rfoot
     direction -0.0783088 -0.215152 0.973436   
     length 1.98785  
     axis -90 -7.62852e-016 -20   XYZ
    dof rx rz
    limits (-45.0 90.0)
           (-20.0 70.0)
  end
  begin
     id 10 
     name rtoes
     direction -1.53606e-011 -4.21943e-011 1   
     length 1.001   
     axis -90 -7.62852e-016 -20   XYZ
    dof rx
    limits (-90.0 20.0)
  end
  begin
     id 11 
     name lowerback
     direction 0.00141527 0.998403 -0.0564763   
     length 2.30486   
     axis 0 0 0   XYZ
    dof rx ry rz
    limits (-20.0 45.0)
           (-30.0 30.0)
           (-30.0 30.0)
  end
  begin
     id 12 
     name upperback
     direction 0.0125137 0.999915 0.00361315   
     length 2.30697   
     axis 0 0 0   XYZ
    dof rx ry rz
    limits (-20.0 45.0)
           (-30.0 30.0)
           (-30.0 30.0)
  end
  begin
     id 13 
     name thorax
     direction 0.0136417 0.999471 0.0295116   
     length 2.31005   
     axis 0 0 0   XYZ
    dof rx ry rz
    limits (-20.0 45.0)
           (-30.0 30.0)
           (-30.0 30.0)
  end
  begin
     id 14 
     name lowerneck
     direction 0.0766806 0.997047 0.00422047   
     length 1.68825   
     axis 0 0 0   XYZ
    dof rx ry rz
    limits (-20.0 45.0)
           (-30.0 30.0)
           (-30.0 30.0)
  end
  begin
     id 15 
     name upperneck
     direction -0.143512 0.985106 -0.0947088   
     length 1.69772   
     axis 0 0 0   XYZ
    dof rx ry rz
    limits (-20.0 45.0)
           (-30.0 30.0)
           (-30.0 30.0)
  end
  begin
     id 16
     name head
     direction -0.0539128 0.997849 -0.0372864  
     length 1.71187  
     axis 0 0 0   XYZ
    dof rx ry rz
    limits (-20.0 45.0)
           (-30.0 30.0)
           (-30.0 30.0)
  end
  begin
     id 17 
     name lclavicle
     direction 0.978251 0.207416 -0.00165765  
     length 3.35399  
     axis 0 0 0   XYZ
    dof ry rz
    limits (-20.0 10.0)
           (0.0 20.0)
  end
  begin
     id 18 
     name lhumerus
     direction 1 -4.48966e-011 -1.32191e-028   
     length 5.70706   
     axis 180 -30 -90   XYZ
    dof rx ry rz
    limits (-60.0 90.0)
           (-90.0 90.0)
           (-90.0 90.0)
  end
  begin
     id 19
     name lradius
     direction 1 -4.48976e-011 9.36106e-027   
     length 3.33243   
     axis 180 -30 -90   XYZ
    dof rx
    limits (-10.0 170.0)
  end
  begin
     id 20
     name lwrist
     direction 1 -4.48976e-011 1.1555e-026   
     length 1.66621   
     axis -5.7412e-015 90 90   XYZ
    dof ry
    limits (-180.0 0.0)
 end
  begin
     id 21 
     name lhand
     direction 1 -4.48939e-011 2.31113e-026   
     length 0.792687   
     axis -1.47463e-014 90 90   XYZ
    dof rx rz
    limits (-90.0 90.0)
           (-45.0 45.0)
  end
  begin
     id 22 
     name lfingers
     direction 1 -4.48866e-011 4.62274e-026   
     length 0.639085   
     axis -2.94925e-014 90 90   XYZ
    dof rx
    limits (0.0 90.0)
  end
  begin
     id 23
     name lthumb
     direction 0.707107 -6.34847e-011 0.707107   
     length 0.917601   
     axis -90 45 -6.68868e-015   XYZ
    dof rx rz
    limits (-45.0 45.0)
           (-45.0 45.0)
  end
  begin
     id 24 
     name rclavicle
     direction -0.981813 0.185514 0.0403428   
     length 3.47271  
     axis 0 0 0   XYZ 
    dof ry rz
    limits (-10.0 20.0)
           (-20.0 0.0)
  end
  begin
     id 25 
     name rhumerus
     direction -1 -4.48972e-011 -6.58544e-029  
     length 5.88176   
     axis 180 30 90   XYZ
    dof rx ry rz
    limits (-90.0 60.0)
           (-90.0 90.0)
           (-90.0 90.0)
  end
  begin
     id 26 
     name rradius
     direction -1 -4.48964e-011 8.36306e-027   
     length 3.28156   
     axis 180 30 90   XYZ
    dof rx
    limits (-10.0 170.0)
  end
  begin
     id 27 
     name rwrist
     direction -1 -4.48903e-011 1.15562e-026   
     length 1.64078   
     axis -5.7412e-015 -90 -90   XYZ
    dof ry
    limits (-180.0 0.0)
  end
  begin
     id 28
     name rhand
     direction -1 -4.49055e-011 2.31074e-026   
     length 0.863125   
     axis -1.47463e-014 -90 -90   XYZ
    dof rx rz
    limits (-90.0 90.0)
           (-45.0 45.0)
  end
  begin
     id 29
     name rfingers
     direction -1 -4.48994e-011 4.62188e-026   
     length 0.695873   
     axis -2.94925e-014 -90 -90   XYZ
    dof rx
    limits (0.0 90.0)
  end
  begin
     id 30
     name rthumb
     direction -0.707107 -6.35058e-011 0.707107   
     length 0.999139   
     axis -90 -45 6.68868e-015   XYZ
    dof rx rz
    limits (-45.0 45.0)
           (-45.0 45.0)
  end
:hierarchy
  begin
    root lhipjoint rhipjoint lowerback
    lhipjoint lfemur
    lfemur ltibia
    ltibia lfoot
    lfoot ltoes
    rhipjoint rfemur
    rfemur rtibia
    rtibia rfoot
    rfoot rtoes
    lowerback upperback
    upperback thorax
    thorax lowerneck lclavicle rclavicle
    lowerneck upperneck
    upperneck head
    lclavicle lhumerus
    lhumerus lradius
    lradius lwrist
    lwrist lhand lthumb
    lhand lfingers
    rclavicle rhumerus
    rhumerus rradius
    rradius rwrist
    rwrist rhand rthumb
    rhand rfingers
  end

#!OML:ASF \\Waltz\H\Terrain\Patient Classification 1\Animal2\Wednesday\Animal2.ASF
:FULLY-SPECIFIED
:DEGREES
1022
root 1.37612 17.667 -4.83084 -2.19899 0.721534 8.89166
lowerback 5.96287 -2.97904 -2.38616
upperback -1.00287 -4.33803 -4.04777
thorax -4.52499 -2.1481 -2.43466
lowerneck 8.12975 6.08736 15.1622
upperneck -12.1202 8.12293 -18.0283
head -3.43673 4.45651 -8.55129
rclavicle -1.46759e-015 3.44394e-014
rhumerus 14.9672 40.0284 -61.3798
rradius 98.1578
rwrist -20.2791
rhand -11.2003 17.6565
rfingers 7.12502
rthumb 14.8275 -11.793
lclavicle -1.46759e-015 3.44394e-014
lhumerus 20.5256 14.2643 21.0882
lradius 85.3176
lwrist -2.16452
lhand -49.9439 18.3093
lfingers 7.12502
lthumb -22.5353 47.0142
rfemur -15.5797 7.36322 11.8486
rtibia 47.9172
rfoot -22.193 -5.91712
rtoes 20.6027
lfemur -4.78473 4.35476 -29.2548
ltibia 27.9191
lfoot -15.1215 -6.80538
ltoes -22.1547
1023
root 1.34674 17.6788 -4.79198 -2.18128 0.527641 8.51093
lowerback 5.9998 -2.93268 -2.15011
upperback -1.04795 -4.25936 -3.97545
thorax -4.60183 -2.11383 -2.49571
lowerneck 7.92371 6.10725 15.3724
upperneck -11.9512 8.15099 -18.1893
head -3.32846 4.46317 -8.62125
rclavicle -2.80426e-014 1.08835e-014
rhumerus 14.8263 39.8547 -61.6931
rradius 98.1238
rwrist -20.3484
rhand -11.466 18.1164
rfingers 7.12502
rthumb 14.5715 -11.3518
lclavicle -2.80426e-014 1.08835e-014
lhumerus 20.3106 13.9531 20.5032
lradius 84.9939
lwrist -2.49558
lhand -50.1026 18.5104
lfingers 7.12502
lthumb -22.6876 47.1967
rfemur -15.1825 7.25756 12.359
rtibia 47.3894
rfoot -21.9058 -5.35986
rtoes 20.5949
lfemur -4.84661 4.07669 -28.7731
ltibia 28.2153
lfoot -15.1029 -6.27148
ltoes -23.8591
1024
root 1.31934 17.692 -4.75306 -2.1864 0.346764 8.22471
lowerback 6.08238 -2.85524 -1.92126
upperback -1.15472 -4.1491 -3.99559
thorax -4.77444 -2.06515 -2.64896
lowerneck 7.80234 6.02658 15.6557
upperneck -11.6787 8.08109 -18.2397
head -3.22544 4.41507 -8.66766
rclavicle -5.14324e-014 -2.43511e-014
rhumerus 14.5289 39.7354 -62.137
rradius 98.0761
rwrist -20.2796
rhand -11.67 17.8178
rfingers 7.12502
rthumb 14.375 -11.6645
lclavicle -5.14324e-014 -2.43511e-014
lhumerus 20.1121 13.5805 20.0152
lradius 84.7951
lwrist -2.85945
lhand -50.3424 18.2631
lfingers 7.12502
lthumb -22.9177 46.9211
rfemur -14.7153 7.07087 12.7495
rtibia 46.7176
rfoot -21.7651 -4.58845
rtoes 21.8968
lfemur -4.87646 3.82103 -28.4098
ltibia 28.5793
lfoot -15.2548 -5.64741
ltoes -25.0981
1025
root 1.28702 17.7033 -4.71344 -2.01968 0.194229 8.01227
lowerback 5.89645 -2.75965 -1.8565
upperback -1.26556 -4.01332 -3.98894
thorax -4.78392 -2.00009 -2.69874
lowerneck 7.76116 5.95109 15.7288
upperneck -11.5403 8.00585 -18.112
head -3.19566 4.36594 -8.62995
rclavicle -5.09261e-014 -2.88238e-014
rhumerus 14.1321 39.5115 -62.5521
rradius 97.9915
rwrist -20.0534
rhand -11.8701 17.7445
rfingers 7.12502
rthumb 14.1821 -11.7514
lclavicle -5.09261e-014 -2.88238e-014
lhumerus 19.9231 13.1933 19.4535
lradius 84.772
lwrist -2.79411
lhand -50.3028 17.8582
lfingers 7.12502
lthumb -22.8797 46.5209
rfemur -14.3956 6.74436 13.0632
rtibia 45.9028
rfoot -21.7934 -4.16416
rtoes 22.8871
lfemur -5.11889 3.66013 -28.1177
ltibia 28.9975
lfoot -15.2602 -5.17166
ltoes -26.1252
1026
root 1.25445 17.7101 -4.67515 -1.86115 -0.0103918 7.58637
lowerback 5.63402 -2.66019 -1.66083
upperback -1.26964 -3.84889 -3.86881
thorax -4.63714 -1.92293 -2.7114
lowerneck 7.69647 5.92478 15.7858
upperneck -11.6055 7.96181 -18.1138
head -3.20863 4.33919 -8.64027
rclavicle 4.12416e-014 2.62396e-014
rhumerus 13.9008 39.1715 -62.8355
rradius 97.942
rwrist -20.1057
rhand -11.9325 18.1694
rfingers 7.12502
rthumb 14.122 -11.3306
lclavicle 4.12416e-014 2.62396e-014
lhumerus 19.7934 13.0143 18.9017
lradius 84.6877
lwrist -2.8556
lhand -50.1611 18.0952
lfingers 7.12502
lthumb -22.7437 46.7746
rfemur -14.0707 6.27245 13.6319
rtibia 45.021
rfoot -21.8785 -3.82573
rtoes 23.4801
lfemur -5.40536 3.60687 -27.57
ltibia 29.4941
lfoot -15.1432 -4.85685
ltoes -26.5428
1027
root 1.22635 17.7179 -4.63592 -1.82325 -0.18341 7.00572
lowerback 5.46286 -2.55911 -1.27799
upperback -1.19989 -3.66843 -3.69251
thorax -4.47193 -1.84135 -2.76838
lowerneck 7.63004 5.94108 15.6207
upperneck -11.8196 7.94911 -17.9606
head -3.27713 4.32785 -8.56797
rclavicle -5.65294e-016 2.50469e-014
rhumerus 13.9609 38.8986 -62.9816
rradius 97.9481
rwrist -20.4912
rhand -12.1723 18.0265
rfingers 7.12502
rthumb 13.8909 -11.4896
lclavicle -5.65294e-016 2.50469e-014
lhumerus 19.6455 12.9304 18.5127
lradius 84.6366
lwrist -3.18936
lhand -50.1202 18.5328
lfingers 7.12502
lthumb -22.7045 47.2171
rfemur -13.548 5.66144 14.3922
rtibia 44.1359
rfoot -21.9306 -3.40192
rtoes 24.4518
lfemur -5.62763 3.41474 -26.8666
ltibia 30.1465
lfoot -15.3263 -4.65822
ltoes -24.5173
1028
root 1.19934 17.7236 -4.59831 -1.70427 -0.298026 6.54484
lowerback 5.2921 -2.46798 -0.980523
upperback -1.16206 -3.50993 -3.49793
thorax -4.33392 -1.76754 -2.75541
lowerneck 6.98209 6.02934 15.2916
upperneck -11.5106 7.98874 -17.7885
head -3.09255 4.3269 -8.40891
rclavicle 1.585e-014 1.09332e-014
rhumerus 14.0466 38.7099 -63.0704
rradius 97.8839
rwrist -20.4273
rhand -12.8279 17.813
rfingers 7.12502
rthumb 13.2591 -11.7453
lclavicle 1.585e-014 1.09332e-014
lhumerus 19.4625 12.8989 18.2513
lradius 84.597
lwrist -3.47212
lhand -50.0006 18.6109
lfingers 7.12502
lthumb -22.5897 47.3092
rfemur -13.07 4.95426 15.0305
rtibia 43.2741
rfoot -21.8808 -3.40907
rtoes 24.359
lfemur -6.01262 3.19727 -26.3377
ltibia 30.9376
lfoot -15.9025 -4.02018
ltoes -25.7391
1029
root 1.17222 17.7286 -4.56414 -1.58501 -0.330791 6.07135
lowerback 5.18528 -2.42679 -0.683174
upperback -1.16767 -3.42213 -3.27515
thorax -4.27839 -1.7283 -2.70283
lowerneck 6.38523 6.06251 15.1242
upperneck -11.0707 7.97019 -17.8845
head -2.86753 4.30639 -8.36421
rclavicle -2.0245e-014 -1.88845e-015
rhumerus 13.9169 38.5625 -63.2388
rradius 97.8041
rwrist -20.2349
rhand -13.367 17.9376
rfingers 7.12502
rthumb 12.7394 -11.6538
lclavicle -2.0245e-014 -1.88845e-015
lhumerus 19.2765 12.866 17.9515
lradius 84.4719
lwrist -3.51059
lhand -49.9313 18.3262
lfingers 7.12502
lthumb -22.5232 47.0325
rfemur -12.5987 4.1588 15.6511
rtibia 42.4333
rfoot -21.8356 -3.39947
rtoes 23.7738
lfemur -6.45413 3.17889 -25.7882
ltibia 31.7988
lfoot -16.2914 -3.37675
ltoes -28.2637
1030
root 1.1411 17.7335 -4.53031 -1.4933 -0.427788 5.38999
lowerback 5.13362 -2.32073 -0.21575
upperback -1.28347 -3.24166 -3.04043
thorax -4.37318 -1.64818 -2.73747
lowerneck 6.78771 5.9195 15.0683
upperneck -11.2341 7.79844 -17.9413
head -3.01314 4.2423 -8.40215
rclavicle -1.72228e-014 1.98785e-014
rhumerus 13.5064 38.3965 -63.5758
rradius 97.7036
rwrist -20.3455
rhand -13.8882 18.3238
rfingers 7.12502
rthumb 12.2369 -11.2982
lclavicle -1.72228e-014 1.98785e-014
lhumerus 19.1892 12.5477 17.5691
lradius 84.3093
lwrist -3.36871
lhand -50.1759 18.1075
lfingers 7.12502
lthumb -22.7579 46.7852
rfemur -12.1546 3.57244 16.5046
rtibia 41.6032
rfoot -21.8521 -3.20183
rtoes 23.2961
lfemur -6.92911 3.23275 -24.9955
ltibia 32.7326
lfoot -16.51 -2.96257
ltoes -28.2675
